<?xml version="1.0" encoding="UTF-8"?>
<svg id="Layer_1" data-name="Layer 1" xmlns="http://www.w3.org/2000/svg" viewBox="0 0 1879.52 494.82">
  <defs>
    <style>
      .cls-1 {
        fill: #f6f6f6;
      }
    </style>
  </defs>
  <path class="cls-1" d="M198.19,494.82c-26.43,0-60.01-2.21-100.75-6.61-40.75-4.39-73.23-9.46-97.45-15.19v-151.29c27.3,10.57,58.14,19.05,92.49,25.43,34.36,6.39,64.3,9.58,89.85,9.58,26.86,0,45.58-.76,56.16-2.31,10.57-1.54,15.85-5.62,15.85-12.23,0-4.39-8.7-7.36-26.09-8.92-17.4-1.54-38.54-3.19-63.42-4.95-24.89-1.76-49.88-4.84-74.98-9.25-25.11-4.4-46.36-13.32-63.75-26.76-17.4-13.43-26.09-30.94-26.09-52.52,0-29.5,18.5-52.74,55.49-69.7,37-16.95,89.85-25.43,158.55-25.43,58.14,0,113.85,6.83,167.14,20.47l1.32,138.08c-41.4-19.82-92.06-29.73-151.95-29.73-22.9,0-39.31.78-49.22,2.31-9.91,1.55-14.86,5.19-14.86,10.9,0,3.53,8.69,6.06,26.1,7.6,17.39,1.55,38.54,3.53,63.42,5.95,24.88,2.43,49.88,6.27,74.98,11.56,25.11,5.28,46.35,14.76,63.76,28.41,17.39,13.65,26.09,31.05,26.09,52.19,0,33.04-19.6,58.37-58.8,75.98-39.2,17.61-93.81,26.42-163.84,26.42"/>
  <path class="cls-1" d="M619.69,484.91h-179.04V22.46h194.23l-21.14,250.39h8.59c6.61-39.19,22.02-70.36,46.24-93.48,24.22-23.12,53.95-34.68,89.19-34.68,48.88,0,84.89,12.66,108.01,37.98,23.13,25.33,34.69,59.79,34.69,103.39v198.85h-184.32l14.54-109c3.07-21.14-.12-38.54-9.58-52.19-9.48-13.65-24.11-20.48-43.93-20.48s-36.12,6.72-48.88,20.15c-12.78,13.44-18.28,30.72-16.52,51.86l7.93,109.67Z"/>
  <path class="cls-1" d="M1152.16,484.91h-173.75v-176.39h-62.1v-153.93h235.85v330.32ZM1049.76,136.09c-29.51,0-53.3-6.17-71.35-18.5-18.07-12.32-27.09-28.84-27.09-49.54s8.92-36.44,26.76-48.56c17.84-12.11,41.72-18.17,71.68-18.17s53.84,6.06,71.68,18.17c17.84,12.12,26.76,28.3,26.76,48.56s-8.92,37.22-26.76,49.54c-17.84,12.33-41.73,18.5-71.68,18.5"/>
  <path class="cls-1" d="M1406.51,484.91h-181.02v-183l-58.8,5.28v-152.61l58.8.66v-29.73c0-40.07,15.19-71.02,45.58-92.82,30.39-21.8,72.01-32.7,124.86-32.7,35.67,0,70.69,5.07,105.04,15.2l-11.23,112.31c-14.98-5.28-30.39-7.93-46.25-7.93-32.6,0-48.88,7.27-48.88,21.8v13.87l120.24-.66v152.61l-116.27-5.28,7.93,183Z"/>
  <path class="cls-1" d="M1759.28,494.82c-32.6,0-60.23-3.09-82.91-9.25-22.69-6.17-39.87-14.97-51.53-26.43-11.67-11.45-19.93-23.67-24.77-36.66-4.85-12.99-7.27-27.63-7.27-43.93v-71.35h-66.07v-152.61c46.68,0,81.03-10.9,103.06-32.7,22.02-21.8,33.03-51.63,33.03-89.52h103.72v122.22h112.97v152.61h-112.97v8.59c0,16.74,16.95,25.1,50.87,25.1,17.61,0,36.99-3.52,58.14-10.56v140.05c-38.76,16.29-77.52,24.44-116.27,24.44"/>
</svg>